<svg width="86" height="100" viewBox="0 0 86 100" fill="none" xmlns="http://www.w3.org/2000/svg">
<path d="M26.1505 0.000141721C25.682 0.00461239 25.1957 0.117634 24.7526 0.363217C23.3457 1.14311 22.8296 2.95116 23.6089 4.35704L26.7858 10.0936C19.1319 14.8294 14.0601 22.9183 14.0601 32.1504C14.0601 32.1892 14.06 32.2474 14.0601 32.3047C14.0601 32.325 14.0599 32.3365 14.0601 32.3592C14.0601 32.3893 14.0601 32.4334 14.0601 32.4409V33.8659C12.5901 32.1746 10.4292 31.1066 8.01487 31.1066C3.59171 31.1066 0 34.6983 0 39.1214V63.8105C0 68.2337 3.59171 71.8254 8.01487 71.8254C10.4292 71.8254 12.5901 70.7574 14.0601 69.066V72.5243C14.0601 77.1869 17.8753 81.0021 22.5379 81.0021H24.6891V91.9851C24.6891 96.4083 28.2808 100 32.704 100C37.1271 100 40.7188 96.4083 40.7188 91.9851V81.0021H44.4403V91.9851C44.4403 96.4083 48.0321 100 52.4552 100C56.8784 100 60.4701 96.4083 60.4701 91.9851V81.0021H62.6213C67.2839 81.0021 71.0991 77.1869 71.0991 72.5243V69.066C72.5691 70.7574 74.73 71.8254 77.1443 71.8254C81.5675 71.8254 85.1592 68.2337 85.1592 63.8105V39.1214C85.1592 34.6983 81.5675 31.1066 77.1443 31.1066C74.73 31.1066 72.5691 32.1746 71.0991 33.8659V32.4681V32.4409C71.0993 32.3972 71.0992 32.3537 71.0991 32.3592C71.0997 32.2722 71.0991 32.2029 71.0991 32.1504C71.0991 22.9199 66.0159 14.8388 58.3643 10.1027L61.5502 4.35703C62.3295 2.95115 61.8135 1.1431 60.4066 0.363209C59.9635 0.117626 59.4772 0.00460953 59.0087 0.000133131C57.9697 -0.00981124 56.9499 0.537754 56.4127 1.50689L53.0815 7.52486C49.8242 6.32284 46.2801 5.6641 42.5796 5.6641C38.8828 5.6641 35.3322 6.3161 32.0777 7.51578L28.7464 1.50689C28.2092 0.537751 27.1894 -0.00978831 26.1505 0.000133131V0.000141721Z" fill="white"/>
<path d="M8.01508 33.1934C4.71434 33.1934 2.08789 35.8198 2.08789 39.1206V63.8096C2.08789 67.1104 4.71434 69.7368 8.01508 69.7368C11.3158 69.7368 13.9423 67.1104 13.9423 63.8096V39.1206C13.9423 35.8198 11.3158 33.1934 8.01508 33.1934ZM77.1445 33.1934C73.8438 33.1934 71.2173 35.8198 71.2173 39.1206V63.8096C71.2173 67.1104 73.8438 69.7368 77.1445 69.7368C80.4453 69.7368 83.0717 67.1104 83.0717 63.8096V39.1206C83.0717 35.8198 80.4453 33.1934 77.1445 33.1934Z" fill="#A4C639"/>
<path d="M32.7036 61.3691C29.4028 61.3691 26.7764 63.9956 26.7764 67.2963V91.9854C26.7764 95.2862 29.4028 97.9126 32.7036 97.9126C36.0043 97.9126 38.6308 95.2862 38.6308 91.9854V67.2963C38.6308 63.9956 36.0043 61.3691 32.7036 61.3691ZM52.4548 61.3691C49.1541 61.3691 46.5276 63.9956 46.5276 67.2963V91.9854C46.5276 95.2862 49.1541 97.9126 52.4548 97.9126C55.7556 97.9126 58.382 95.2862 58.382 91.9854V67.2963C58.382 63.9956 55.7556 61.3691 52.4548 61.3691Z" fill="#A4C639"/>
<path d="M26.1683 2.08793C26.0282 2.08936 25.8976 2.12551 25.7689 2.19685C25.3463 2.43114 25.2073 2.91682 25.4422 3.34054L29.6175 10.8834C21.5843 15.0633 16.1583 23.0068 16.1475 32.1233H69.0111C69.0003 23.0068 63.5743 15.0633 55.5411 10.8834L59.7164 3.34054C59.9513 2.91682 59.8123 2.43114 59.3897 2.19685C59.261 2.12551 59.1304 2.08927 58.9903 2.08793C58.6903 2.08504 58.406 2.23491 58.246 2.52362L54.0162 10.1482C50.556 8.61338 46.6749 7.7519 42.5793 7.7519C38.4837 7.7519 34.6026 8.61338 31.1424 10.1482L26.9126 2.52362C26.7526 2.23491 26.4683 2.08505 26.1683 2.08793ZM16.1475 34.211V72.5244C16.1475 76.0645 18.9975 78.9145 22.5376 78.9145H62.621C66.1611 78.9145 69.0111 76.0645 69.0111 72.5244V34.211H16.1475Z" fill="#A4C639"/>
<path d="M30.3805 18.0352C29.1737 18.0352 28.1748 19.0341 28.1748 20.2408C28.1748 21.4476 29.1737 22.4465 30.3805 22.4465C31.5873 22.4465 32.5862 21.4476 32.5862 20.2408C32.5862 19.0341 31.5873 18.0352 30.3805 18.0352ZM54.7791 18.0352C53.5723 18.0352 52.5734 19.0341 52.5734 20.2408C52.5734 21.4476 53.5723 22.4465 54.7791 22.4465C55.9859 22.4465 56.9848 21.4476 56.9848 20.2408C56.9848 19.0341 55.9859 18.0352 54.7791 18.0352Z" fill="white"/>
</svg>
