<svg width="82" height="100" viewBox="0 0 82 100" fill="none" xmlns="http://www.w3.org/2000/svg">
<path d="M55.4149 15.9489C57.305 13.7705 58.7462 11.2401 59.6556 8.50312C60.5651 5.76613 60.9249 2.87645 60.7145 0C54.9118 0.468404 49.5253 3.19757 45.7155 7.59949C43.8911 9.70923 42.5086 12.1636 41.6498 14.8172C40.791 17.4709 40.4734 20.2699 40.7158 23.0485C43.5464 23.0721 46.3444 22.444 48.8933 21.2129C51.4422 19.9818 53.6736 18.1807 55.4149 15.9489ZM68.014 53.1465C68.0476 49.3154 69.0567 45.5561 70.9462 42.2232C72.8357 38.8904 75.5432 36.0939 78.8133 34.0977C76.7496 31.1241 74.0213 28.6723 70.8451 26.9366C67.6688 25.2009 64.1318 24.2292 60.5145 24.0984C52.715 23.2985 45.5155 28.6481 41.3658 28.6481C37.2161 28.6481 31.3665 24.1984 24.8669 24.2984C20.6178 24.4384 16.4776 25.6772 12.8499 27.8941C9.22231 30.111 6.23117 33.2302 4.16827 36.9475C-4.63114 52.2465 1.91842 74.995 10.7178 87.3442C14.7176 93.3938 19.7172 100.243 26.3168 99.9934C32.9164 99.7434 35.0662 95.8936 42.7157 95.8936C50.3652 95.8936 52.715 99.9933 59.2146 99.8434C65.7142 99.6934 70.3139 93.6438 74.5136 87.5942C77.4886 83.2021 79.8125 78.4027 81.4131 73.3451C77.4508 71.6553 74.0702 68.8418 71.689 65.2522C69.3077 61.6626 68.0302 57.4541 68.014 53.1465Z" fill="black"/>
</svg>
