<svg width="70" height="70" viewBox="0 0 70 70" fill="none" xmlns="http://www.w3.org/2000/svg">
<circle cx="35" cy="35" r="35" fill="#A1DB35"/>
<path d="M46.077 34.8698C46.077 39.8837 46.0421 44.8986 46.0944 49.9125C46.1159 51.9744 44.4067 53.696 42.3478 53.6775C37.1289 53.6293 31.9099 53.6621 26.691 53.6611C24.5634 53.6601 23.0008 52.1067 23.0008 49.9884C22.9997 39.8826 22.9997 29.778 23.0008 19.6722C23.0008 17.5703 24.5613 16.0026 26.654 16.0015C31.9109 15.9995 37.1689 15.9995 42.4258 16.0015C44.5174 16.0026 46.076 17.5703 46.077 19.6733C46.078 24.7395 46.077 29.8046 46.077 34.8698ZM44.4887 34.8288C44.4887 30.8012 44.4887 26.7727 44.4887 22.7452C44.4887 22.1956 44.4877 22.1946 43.9515 22.1946C37.6856 22.1946 31.4208 22.1946 25.155 22.1946C24.587 22.1946 24.5859 22.1946 24.5859 22.7513C24.5859 30.8074 24.5859 38.8624 24.5859 46.9185C24.5859 47.4681 24.587 47.4691 25.1232 47.4691C31.4013 47.4691 37.6795 47.4691 43.9586 47.4691C44.4877 47.4691 44.4887 47.4681 44.4887 46.9503C44.4887 42.9094 44.4887 38.8696 44.4887 34.8288ZM34.543 20.6063C37.6744 20.6063 40.8068 20.6063 43.9381 20.6063C44.053 20.6063 44.1678 20.6063 44.2837 20.6022C44.4016 20.5981 44.4744 20.5397 44.4836 20.4156C44.5933 18.9791 44.1258 17.6113 42.2597 17.6C37.1084 17.5703 31.9571 17.5857 26.8058 17.5939C25.7476 17.5959 24.9879 18.1322 24.7141 19.0201C24.6034 19.3759 24.6034 19.7481 24.5788 20.1183C24.5531 20.5069 24.6803 20.6176 25.0719 20.6156C28.2279 20.6002 31.3849 20.6063 34.543 20.6063ZM34.5614 49.0563C31.4936 49.0563 28.4258 49.0522 25.358 49.0584C24.4926 49.0604 24.5747 48.9056 24.5921 49.8694C24.6167 51.2116 25.4452 52.0616 26.7873 52.0657C31.9509 52.0801 37.1155 52.0749 42.2791 52.0677C42.9702 52.0667 43.5875 51.8463 44.0335 51.2772C44.3913 50.8209 44.4857 50.2847 44.4867 49.7259C44.4887 48.9835 44.5564 49.0574 43.8407 49.0563C40.7483 49.0563 37.6549 49.0563 34.5614 49.0563Z" fill="white"/>
<path d="M34.5442 39.0265C36.8194 39.0265 39.0936 39.0255 41.3688 39.0275C41.8528 39.0285 42.1696 39.2726 42.2311 39.6724C42.3111 40.1984 41.9779 40.6045 41.4334 40.6096C40.4747 40.6198 39.516 40.6127 38.5573 40.6137C34.9533 40.6137 31.3492 40.6147 27.7452 40.6127C27.1946 40.6127 26.8706 40.3492 26.8398 39.8898C26.806 39.373 27.131 39.0296 27.6806 39.0275C29.2401 39.0224 30.7986 39.0255 32.3582 39.0255C33.0872 39.0265 33.8152 39.0265 34.5442 39.0265Z" fill="white"/>
<path d="M34.53 43.6846C32.2681 43.6846 30.0052 43.6856 27.7433 43.6835C27.2439 43.6835 26.9281 43.4631 26.8502 43.0735C26.7426 42.5413 27.0871 42.1055 27.6438 42.1004C28.7297 42.0912 29.8165 42.0973 30.9034 42.0973C34.3793 42.0973 37.8562 42.0963 41.3321 42.0984C41.8837 42.0984 42.2067 42.3629 42.2354 42.8223C42.2682 43.338 41.9432 43.6815 41.3926 43.6825C39.8074 43.6876 38.2232 43.6846 36.6381 43.6846C35.9357 43.6846 35.2334 43.6846 34.53 43.6846Z" fill="white"/>
<path d="M32.2742 32.8867C33.7814 32.8867 35.2897 32.8826 36.7969 32.8888C37.4234 32.8918 37.8069 33.4291 37.5823 33.9797C37.4265 34.3622 37.1158 34.478 36.719 34.477C34.5217 34.4698 32.3244 34.4739 30.1261 34.4739C29.3212 34.4739 28.5163 34.477 27.7114 34.4729C27.1588 34.4698 26.8378 34.1735 26.8389 33.6793C26.8389 33.1861 27.1598 32.8888 27.7135 32.8877C29.2341 32.8847 30.7536 32.8867 32.2742 32.8867Z" fill="white"/>
<path d="M32.2379 35.9578C33.7584 35.9578 35.279 35.9527 36.7986 35.9599C37.4568 35.963 37.8393 36.5669 37.5481 37.1226C37.3984 37.4087 37.1554 37.545 36.8303 37.544C33.7636 37.543 30.6978 37.5461 27.631 37.5409C27.145 37.5399 26.8354 37.2128 26.8374 36.7473C26.8384 36.2839 27.1501 35.963 27.6382 35.9609C29.1721 35.9537 30.705 35.9578 32.2379 35.9578Z" fill="white"/>
<path d="M30.6086 29.867C30.0692 29.8639 29.7186 29.2702 30.0067 28.6602C30.345 27.9435 30.7101 27.2401 31.0648 26.5316C31.4473 25.7656 31.8267 24.9987 32.2153 24.2348C32.4839 23.7068 32.9299 23.5304 33.3759 23.7601C33.8004 23.9795 33.9194 24.4368 33.663 24.9536C32.9371 26.4198 32.203 27.8809 31.4719 29.3441C31.3119 29.667 31.0782 29.8762 30.6086 29.867Z" fill="white"/>
<path d="M28.3565 29.1025C28.1596 29.1168 27.9618 29.0143 27.7915 28.8441C27.3035 28.357 26.8093 27.8762 26.3315 27.3799C25.9572 26.9923 25.9624 26.5463 26.3397 26.1556C26.8103 25.6696 27.2891 25.1918 27.7751 24.7202C28.1473 24.3582 28.6477 24.3459 28.9707 24.674C29.2916 24.9991 29.2701 25.4912 28.9092 25.8706C28.6897 26.1023 28.4693 26.3341 28.2304 26.5463C28.0346 26.7196 28.0602 26.8447 28.2396 27.0097C28.5021 27.2517 28.7554 27.506 28.9943 27.7716C29.2301 28.0341 29.2598 28.3478 29.1132 28.6636C28.9768 28.9558 28.7328 29.0994 28.3565 29.1025Z" fill="white"/>
<path d="M37.6312 26.7676C37.6486 27.0158 37.544 27.2137 37.3749 27.3828C36.8878 27.8709 36.4059 28.3641 35.9107 28.8429C35.5528 29.1874 35.0607 29.1936 34.7428 28.8798C34.425 28.5661 34.428 28.0729 34.7623 27.712C34.9879 27.469 35.2206 27.2301 35.4657 27.0076C35.6461 26.8435 35.6677 26.7174 35.4739 26.5451C35.2268 26.3247 34.9961 26.0837 34.7695 25.8418C34.4301 25.4788 34.4209 24.9918 34.7346 24.6739C35.0484 24.356 35.5467 24.354 35.9014 24.6965C36.4069 25.1835 36.8981 25.6859 37.3923 26.1842C37.5512 26.3431 37.6445 26.5349 37.6312 26.7676Z" fill="white"/>
</svg>
