<svg xmlns="http://www.w3.org/2000/svg" width="11" height="20" viewBox="0 0 11 20" fill="none"><path d="M3.05437 20V14.4039V11.1803C3.05437 10.9144 3.05437 10.9144 2.78036 10.9144C1.93579 10.9144 1.09121 10.9144 0.246629 10.9144C0.061273 10.9144 -0.00158168 10.8596 3.0111e-05 10.671C0.00862632 9.63083 0.00862632 8.59069 3.0111e-05 7.55055C3.0111e-05 7.36358 0.0564459 7.30395 0.245025 7.30556C1.0896 7.31362 1.93417 7.30556 2.77875 7.30556C3.05276 7.30556 3.05437 7.30556 3.05437 7.02188C3.05437 6.28046 3.0447 5.54065 3.05437 4.79922C3.04237 4.05724 3.16806 3.31946 3.42508 2.62331C3.96986 1.25812 4.98529 0.455457 6.40205 0.133099C7.23695 -0.0570916 8.08315 0.00415553 8.92611 0.0315559C9.34679 0.0444502 9.76585 0.0992506 10.1881 0.121816C10.3493 0.121816 10.4041 0.179843 10.4025 0.341021C10.4025 1.27747 10.4025 2.21392 10.4025 3.14875C10.4025 3.30026 10.3542 3.35506 10.1994 3.35184C9.68688 3.35184 9.17271 3.34378 8.66017 3.35184C8.3807 3.3507 8.10174 3.37552 7.82687 3.42598C7.56972 3.46151 7.33156 3.5812 7.14961 3.76636C6.96766 3.95152 6.85215 4.19173 6.82112 4.44947C6.78857 4.61571 6.7713 4.78457 6.76954 4.95396C6.76954 5.66153 6.76954 6.37072 6.76954 7.0783C6.76954 7.26526 6.83401 7.30717 7.00647 7.30717C8.01384 7.30717 9.02121 7.30717 10.0286 7.30717C10.2816 7.30717 10.2832 7.30717 10.2526 7.557C10.1188 8.60627 9.98183 9.65232 9.85611 10.7048C9.83516 10.8789 9.74974 10.9127 9.59823 10.9127C8.74559 10.9127 7.89457 10.9127 7.04354 10.9127C6.77437 10.9127 6.77276 10.9127 6.77276 11.1787V19.7002C6.77276 19.7969 6.77276 19.8936 6.76309 19.9919L3.05437 20Z" fill="white"></path></svg>