<svg width="70" height="70" viewBox="0 0 70 70" fill="none" xmlns="http://www.w3.org/2000/svg">
<circle cx="35" cy="35" r="35" fill="#8861FF"/>
<path d="M14.9995 19.418C15.2123 18.5085 15.5622 17.6727 16.2548 17.0129C16.93 16.3694 17.7116 16.0185 18.662 16.0195C28.2713 16.0256 37.8796 16.0522 47.4889 16.0001C49.6312 15.9888 50.957 17.5561 51.3151 19.0518C51.4256 19.5121 51.4737 19.9786 51.4726 20.4533C51.4685 25.6851 51.4737 30.9169 51.4644 36.1497C51.4634 36.5057 51.5504 36.7686 51.8113 37.0264C52.5417 37.7466 52.5632 38.7236 51.8818 39.496C51.7182 39.6822 51.6824 39.8357 51.8143 40.0352C51.8286 40.0566 51.8399 40.0802 51.8471 40.1047C52.0097 40.7114 52.2808 41.1063 53.0164 41.2035C53.7601 41.3017 54.2236 42.0526 54.2317 42.8127C54.2369 43.3099 54.2369 43.8081 54.2317 44.3053C54.2215 45.2434 53.5156 45.981 52.5724 46.0086C52.3074 46.0168 52.1683 46.1109 52.109 46.3555C52.0997 46.3923 52.0885 46.4301 52.0691 46.4629C51.7703 46.9836 51.6916 47.4245 52.1253 47.9892C52.5836 48.5857 52.4394 49.3089 51.9708 49.9054C51.6159 50.3565 51.1985 50.7565 50.7616 51.1289C50.0639 51.7233 49.1575 51.7294 48.4537 51.1361C48.2225 50.9407 48.0322 50.8773 47.7815 51.0542C47.7406 51.0829 47.6915 51.1064 47.6434 51.1187C47.1074 51.2548 46.7953 51.4911 46.7155 52.1417C46.6143 52.9714 45.8818 53.4399 45.0255 53.4451C44.5784 53.4471 44.1324 53.4471 43.6853 53.4451C42.6715 53.441 41.941 52.7791 41.8674 51.7612C41.848 51.4982 41.7579 51.3601 41.5124 51.3028C41.451 51.2885 41.3886 51.266 41.3344 51.2353C40.8546 50.9591 40.4566 50.9059 39.9461 51.31C39.3344 51.7949 38.4576 51.6302 37.8755 51.0849C37.5308 50.7627 37.2003 50.4251 36.8709 50.0865C36.1742 49.3693 36.1261 48.4015 36.7778 47.6332C36.9671 47.4102 37.008 47.2332 36.8474 46.9969C36.7983 46.9243 36.7492 46.8393 36.7369 46.7544C36.6377 46.068 36.2018 45.9902 35.5952 46.0025C33.7455 46.0414 31.8949 46.0138 30.0442 46.0179C29.6718 46.0189 29.3997 45.8634 29.2493 45.5288C29.104 45.2056 29.1767 44.8987 29.415 44.6449C29.6442 44.4015 29.9552 44.3779 30.2662 44.3779C31.4662 44.3769 32.6652 44.3779 33.8652 44.3769C34.4269 44.3769 34.4269 44.3759 34.4279 43.805C34.4279 43.5247 34.4259 43.2434 34.4289 42.9631C34.4371 41.9032 35.0888 41.1779 36.1486 41.0817C36.3921 41.0602 36.5302 40.9845 36.5793 40.7482C36.5896 40.6991 36.6111 40.651 36.6346 40.606C36.8944 40.1098 37.0203 39.6986 36.5609 39.1584C36.0719 38.5845 36.2407 37.7067 36.7727 37.1185C37.1236 36.7318 37.4929 36.3584 37.8827 36.0095C38.5783 35.3855 39.542 35.3906 40.2469 36.0208C40.4423 36.1957 40.605 36.2387 40.8178 36.0914C40.8485 36.0699 40.8853 36.0535 40.9211 36.0412C41.4735 35.8622 41.8899 35.6556 41.9554 34.9221C42.0168 34.2254 42.607 33.8008 43.3027 33.6903C43.982 33.5829 44.6797 33.5727 45.358 33.7006C46.1887 33.8561 46.7329 34.4821 46.7851 35.3231C46.8025 35.6095 46.9079 35.7435 47.1657 35.7978C47.1902 35.8029 47.2148 35.8131 47.2373 35.8254C47.7682 36.1149 48.2767 36.3042 48.7892 35.7507C48.9519 35.5747 49.2486 35.5369 49.5115 35.5522C49.7458 35.5655 49.8225 35.4591 49.8225 35.2331C49.8184 32.8852 49.8174 30.5373 49.8235 28.1895C49.8245 27.9368 49.7232 27.8406 49.4808 27.859C49.3918 27.8662 49.3018 27.8601 49.2128 27.8601C38.5579 27.8601 27.902 27.8601 17.2471 27.8601C16.6118 27.8601 16.6108 27.8601 16.6108 28.4759C16.6108 32.8525 16.6159 37.23 16.6067 41.6065C16.6046 42.3574 16.7325 43.0531 17.2195 43.6475C17.6031 44.115 18.0778 44.3851 18.706 44.38C20.0717 44.3677 21.4364 44.3779 22.8022 44.3769C23.0078 44.3769 23.2114 44.3851 23.4078 44.4485C23.7638 44.5641 24.0165 44.959 23.9674 45.3109C23.9132 45.6956 23.6093 46.0076 23.2216 46.0097C21.5633 46.0189 19.8988 46.0946 18.2466 45.9841C16.8369 45.891 15.9274 44.959 15.3555 43.7099C15.198 43.3651 15.1172 42.9856 15.0005 42.6214C14.9995 34.8862 14.9995 27.1521 14.9995 19.418ZM33.187 26.2099C38.5722 26.2099 43.9585 26.2068 49.3437 26.2171C49.6997 26.2181 49.8327 26.1342 49.8286 25.7526C49.8102 23.8764 49.8317 22.0001 49.8153 20.1249C49.802 18.5873 48.8516 17.6584 47.3304 17.6584C37.9123 17.6584 28.4933 17.6584 19.0753 17.6584C18.9095 17.6584 18.7438 17.6666 18.5781 17.6635C18.2026 17.6574 17.8773 17.7914 17.5929 18.0236C16.9013 18.5883 16.6118 19.3341 16.6128 20.2129C16.6149 22.038 16.6118 23.8631 16.6118 25.6882C16.6118 26.2109 16.6139 26.212 17.1458 26.212C22.4922 26.2099 27.8396 26.2099 33.187 26.2099ZM39.0592 37.2198C38.8167 37.3159 38.6653 37.5492 38.4781 37.7333C37.8868 38.3124 37.8898 38.3165 38.4699 38.9088C38.9159 39.3641 38.9661 39.6638 38.6438 40.204C38.3205 40.7462 38.0965 41.3262 37.9287 41.9308C37.762 42.5314 37.5205 42.7165 36.8883 42.7216C35.9911 42.7288 36.0832 42.6152 36.0791 43.5513C36.076 44.3534 36.0781 44.3534 36.8883 44.379C37.5144 44.3984 37.7681 44.5887 37.9287 45.182C38.0965 45.802 38.3461 46.3851 38.6633 46.9427C38.963 47.4695 38.919 47.7826 38.4985 48.2112C37.8561 48.866 37.8162 48.7125 38.5057 49.3949C39.1901 50.0742 39.0029 50.0691 39.6832 49.4051C40.1415 48.958 40.4126 48.9151 40.9743 49.2424C41.5298 49.5657 42.1191 49.798 42.739 49.9627C43.3007 50.111 43.4981 50.376 43.5073 50.9468C43.5237 51.8941 43.3498 51.8062 44.3984 51.8103C45.2659 51.8133 45.1513 51.845 45.1615 51.045C45.1697 50.377 45.358 50.1253 45.9994 49.9535C46.5815 49.7969 47.137 49.578 47.6577 49.2731C48.2767 48.91 48.557 48.9478 49.0767 49.4604C49.6097 49.9862 49.6097 49.9862 50.1376 49.4573C50.7616 48.8332 50.7616 48.8332 50.1488 48.1765C49.7642 47.7642 49.7263 47.4593 50.0097 46.9703C50.3381 46.4046 50.5938 45.8102 50.7565 45.1749C50.9048 44.5969 51.1657 44.4015 51.7632 44.379C52.5959 44.3483 52.5939 44.3483 52.5959 43.4899C52.598 42.6183 52.6154 42.7278 51.8317 42.7227C51.1473 42.7186 50.9202 42.5498 50.7483 41.8909C50.5918 41.2945 50.3586 40.7319 50.0475 40.1999C49.7079 39.6188 49.7427 39.3579 50.2112 38.8802C50.8557 38.2234 50.867 38.3717 50.2194 37.7221C49.5289 37.0295 49.6741 37.0479 49.002 37.7078C48.5723 38.1303 48.2634 38.1712 47.7335 37.8725C47.1974 37.5707 46.6429 37.319 46.0465 37.1594C45.2925 36.9579 45.1503 36.7615 45.1482 35.9717C45.1472 35.2914 45.1472 35.2914 44.4577 35.2914C44.4454 35.2914 44.4321 35.2914 44.4199 35.2914C43.5298 35.2914 43.5298 35.2914 43.495 36.164C43.4746 36.6806 43.2679 36.9947 42.8198 37.1134C42.1119 37.3016 41.4449 37.5748 40.8147 37.9502C40.4311 38.1784 40.0924 38.1221 39.7661 37.8193C39.6075 37.672 39.4582 37.5144 39.3027 37.362C39.2392 37.3006 39.1789 37.2331 39.0592 37.2198Z" fill="white"/>
<path d="M34.0139 36.1169C34.0282 36.4146 33.9146 36.6694 33.7233 36.8852C33.0215 37.6771 32.3207 38.4709 31.6046 39.2505C31.267 39.6177 30.8639 39.6607 30.5069 39.4131C30.0854 39.1216 30.021 38.6131 30.3872 38.1783C30.8885 37.584 31.398 36.9937 31.9402 36.4371C32.199 36.1722 32.1479 36.0208 31.9228 35.7844C31.4133 35.2484 30.9274 34.6898 30.4404 34.1333C30.113 33.7599 30.067 33.4366 30.2675 33.0867C30.5223 32.6417 31.1463 32.5169 31.5146 32.9067C32.3105 33.7496 33.0665 34.6315 33.8287 35.5062C33.9709 35.6709 34.02 35.8919 34.0139 36.1169Z" fill="white"/>
<path d="M19.3427 36.1141C19.315 35.8184 19.4409 35.5698 19.6312 35.354C20.3227 34.5703 21.0133 33.7846 21.7181 33.0122C22.0823 32.6133 22.5519 32.5764 22.909 32.8792C23.2834 33.1984 23.3059 33.6619 22.9315 34.1007C22.4353 34.6829 21.932 35.2609 21.401 35.8102C21.1637 36.0558 21.1872 36.1959 21.4092 36.4292C21.9268 36.9744 22.421 37.5422 22.91 38.1151C23.3018 38.5745 23.2905 39.0399 22.9069 39.3642C22.5325 39.6814 22.0946 39.6323 21.6956 39.1954C20.999 38.4333 20.3145 37.6589 19.6301 36.8865C19.4368 36.6716 19.3202 36.4189 19.3427 36.1141Z" fill="white"/>
<path d="M25.8993 40.1202C25.3356 40.1151 24.9908 39.6557 25.13 39.0644C25.4788 37.5759 25.8389 36.0894 26.1949 34.602C26.3341 34.0198 26.4701 33.4367 26.6154 32.8556C26.7556 32.296 27.1668 32.0086 27.6384 32.1293C28.1049 32.249 28.3331 32.6633 28.2042 33.2117C27.7172 35.2833 27.2251 37.3539 26.7269 39.4235C26.6113 39.9033 26.332 40.1243 25.8993 40.1202Z" fill="white"/>
<path d="M26.5857 46.0148C26.1233 46.0127 25.7816 45.6813 25.7755 45.2291C25.7693 44.7708 26.1376 44.3984 26.5959 44.3994C27.043 44.4004 27.4307 44.7974 27.4164 45.2383C27.4031 45.6772 27.0389 46.0168 26.5857 46.0148Z" fill="white"/>
<path d="M41.3863 24.5739C40.2384 24.5739 39.0916 24.578 37.9438 24.5729C36.489 24.5667 35.3473 23.422 35.3442 21.9754C35.3412 20.5012 36.4757 19.3268 37.9346 19.3206C40.2425 19.3114 42.5505 19.3104 44.8574 19.3217C46.3009 19.3288 47.4794 20.5503 47.459 21.9846C47.4375 23.4128 46.2692 24.5678 44.8277 24.5729C43.6809 24.578 42.5331 24.5739 41.3863 24.5739ZM41.3699 22.9299C42.4799 22.9299 43.5889 22.9309 44.6988 22.9299C44.9024 22.9299 45.105 22.9268 45.2932 22.8194C45.6707 22.6035 45.8743 22.1626 45.7781 21.7483C45.6646 21.2613 45.3116 20.9708 44.7848 20.9698C42.5525 20.9646 40.3203 20.9657 38.088 20.9677C37.419 20.9687 37.0026 21.3391 36.9934 21.9263C36.9842 22.5442 37.3862 22.9227 38.0798 22.9268C39.1755 22.935 40.2732 22.9299 41.3699 22.9299Z" fill="white"/>
<path d="M31.5013 21.9327C31.5105 23.3843 30.3678 24.5639 28.9438 24.5741C27.4235 24.5844 26.2368 23.4355 26.2368 21.9511C26.2368 20.5137 27.4266 19.3239 28.8691 19.3198C30.331 19.3147 31.4921 20.4677 31.5013 21.9327ZM29.8512 21.948C29.8502 21.3833 29.4297 20.9669 28.8629 20.971C28.3187 20.9741 27.8982 21.3905 27.89 21.9337C27.8819 22.4933 28.3033 22.9209 28.8701 22.926C29.445 22.9311 29.8522 22.525 29.8512 21.948Z" fill="white"/>
<path d="M22.166 24.5742C20.7194 24.5742 19.5286 23.4008 19.5143 21.9614C19.5 20.5404 20.7112 19.324 22.1455 19.3189C23.6023 19.3137 24.8248 20.524 24.8156 21.9603C24.8054 23.4079 23.6248 24.5732 22.166 24.5742ZM22.1783 22.9261C22.7409 22.921 23.1788 22.479 23.1655 21.9296C23.1522 21.3813 22.699 20.9598 22.1353 20.9711C21.6146 20.9823 21.1532 21.4457 21.1583 21.9542C21.1644 22.5025 21.6146 22.9312 22.1783 22.9261Z" fill="white"/>
<path d="M49.1002 43.584C49.0971 46.208 46.9518 48.3186 44.294 48.3124C41.7016 48.3063 39.5532 46.1334 39.5645 43.5297C39.5758 40.9517 41.7742 38.7706 44.3492 38.7798C46.9733 38.79 49.1032 40.9435 49.1002 43.584ZM47.451 43.5676C47.4531 41.8469 46.0587 40.43 44.3605 40.4259C42.6561 40.4228 41.2218 41.8366 41.2136 43.5277C41.2054 45.2628 42.6029 46.6633 44.3421 46.6643C46.0863 46.6643 47.449 45.3068 47.451 43.5676Z" fill="white"/>
</svg>
