<svg xmlns="http://www.w3.org/2000/svg" width="20" height="20" viewBox="0 0 20 20" fill="none"><path d="M0 17.6817V2.30269C0.0719593 1.9867 0.159563 1.67696 0.321732 1.39225C0.763917 0.617909 1.43814 0.173641 2.30322 0H17.6822C17.7135 0.00834311 17.7442 0.0187715 17.7755 0.0255503C19.1229 0.313388 19.9995 1.3933 19.9995 2.77148C19.9995 7.61083 19.9995 12.4504 19.9995 17.2901C19.9986 18.008 19.7131 18.6963 19.2055 19.2041C18.6979 19.7118 18.0096 19.9975 17.2916 19.9984C12.4248 20.0005 7.5592 20.0005 2.69482 19.9984C2.09743 20.0002 1.51696 19.8001 1.04758 19.4306C0.4693 18.9884 0.141833 18.3898 0 17.6817ZM8.01668 12.0501C8.01668 13.2668 8.01668 14.4835 8.01668 15.7002C8.01668 16.0803 8.15695 16.2216 8.53448 16.2216C9.04828 16.2216 9.5619 16.2216 10.0753 16.2216C10.4883 16.2216 10.6062 16.1022 10.6062 15.6866C10.6062 14.4351 10.6025 13.1894 10.6062 11.9411C10.6062 11.4718 10.7105 11.0233 10.9613 10.6208C11.2549 10.1515 11.6939 9.95177 12.2373 9.99192C12.8108 10.0347 13.1873 10.3413 13.3672 10.8878C13.4664 11.1978 13.5157 11.5217 13.5132 11.8472C13.5132 13.1414 13.5132 14.4355 13.5132 15.7294C13.5132 16.084 13.6248 16.1987 13.9784 16.1987C14.5443 16.2018 15.1101 16.2018 15.6757 16.1987C16.0537 16.1987 16.1757 16.0751 16.1768 15.6939C16.1825 14.1593 16.182 12.6247 16.1371 11.0906C16.1273 10.4842 16.0011 9.88534 15.7653 9.32655C15.4353 8.56681 14.8742 8.07926 14.0686 7.87277C13.5888 7.74971 13.1013 7.75022 12.6153 7.7909C12.1911 7.81764 11.7796 7.94663 11.416 8.16686C11.1592 8.33223 10.9353 8.54387 10.7558 8.79103C10.7329 8.82127 10.7099 8.8656 10.6672 8.8583C10.6093 8.84735 10.615 8.79051 10.615 8.74671C10.6119 8.62365 10.615 8.50007 10.6119 8.37648C10.6088 8.00521 10.5024 7.89675 10.1374 7.89623C9.61074 7.89623 9.08408 7.89623 8.55742 7.89623C8.13505 7.89623 8.01877 8.01408 8.01825 8.44375C8.01755 9.64654 8.01738 10.8493 8.01773 12.0521L8.01668 12.0501ZM6.78243 12.0391C6.78243 10.8165 6.78243 9.59353 6.78243 8.37023C6.78243 8.02972 6.64789 7.89519 6.31313 7.89363C5.78577 7.89119 5.25877 7.89119 4.73211 7.89363C4.33268 7.89363 4.19398 8.03285 4.19346 8.43332C4.19346 10.8466 4.19346 13.2596 4.19346 15.6725C4.19346 16.0641 4.34572 16.218 4.73524 16.22C5.24243 16.2221 5.74979 16.2221 6.25733 16.22C6.64216 16.22 6.78451 16.0751 6.78451 15.6887C6.78486 14.4734 6.78451 13.2575 6.78347 12.0412L6.78243 12.0391ZM3.82375 5.45378C3.82203 5.67383 3.86394 5.89204 3.94707 6.09579C4.0302 6.29954 4.1529 6.4848 4.30806 6.64083C4.46323 6.79687 4.64779 6.9206 4.85107 7.00487C5.05435 7.08914 5.27232 7.13229 5.49237 7.1318C5.71392 7.13208 5.93332 7.08846 6.13791 7.00346C6.3425 6.91846 6.52822 6.79376 6.68434 6.63658C6.84046 6.47939 6.96388 6.29283 7.04749 6.08767C7.13109 5.8825 7.17322 5.66281 7.17142 5.44127C7.16773 4.99704 6.98915 4.57215 6.67438 4.25865C6.35962 3.94515 5.93401 3.7683 5.48977 3.76639C5.04553 3.77066 4.62101 3.95049 4.30888 4.26662C3.99675 4.58276 3.82235 5.00953 3.82375 5.45378Z" fill="white"></path></svg>