<svg width="70" height="70" viewBox="0 0 70 70" fill="none" xmlns="http://www.w3.org/2000/svg">
<circle cx="35" cy="35" r="35" fill="#032E9B"/>
<path d="M21.3065 21.6935C21.9943 21.3958 22.6565 21.4027 23.2971 21.8337C23.5296 21.9899 23.7031 22.1939 23.8204 22.4362C23.9239 22.6493 24.0738 22.6992 24.2896 22.6985C26.7383 22.6958 29.1864 22.6951 31.6351 22.7048C31.8898 22.7055 31.9939 22.6083 32.0744 22.3737C32.5172 21.0883 33.6403 20.2762 34.9576 20.2679C36.2625 20.2596 37.4133 21.0716 37.8603 22.3487C37.9533 22.6153 38.0747 22.7062 38.3544 22.7055C40.7782 22.6944 43.2026 22.6937 45.6263 22.7006C45.8796 22.7013 46.0171 22.6125 46.1476 22.3959C46.7007 21.4777 47.9001 21.1986 48.7288 21.7761C49.6624 22.4265 49.8477 23.6279 49.1508 24.515C48.3978 25.4735 46.8021 25.3631 46.1725 24.288C46.0247 24.0346 45.8671 23.9645 45.5937 23.9673C44.3207 23.9798 43.0471 23.9722 41.7742 23.9722C41.7506 23.9722 41.7284 23.9833 41.6173 24.0124C41.8443 24.1159 42.0095 24.1922 42.1753 24.2679C44.2145 25.1965 46.0226 26.4632 47.5517 28.095C49.9553 30.6596 51.4815 33.681 52.0618 37.1583C52.1222 37.5199 52.2548 37.6344 52.6018 37.5997C52.8808 37.572 53.1647 37.5893 53.4458 37.5983C53.8803 37.6122 54.1232 37.8246 54.1281 38.2501C54.142 39.4494 54.1399 40.6495 54.1295 41.8496C54.126 42.2237 53.8824 42.4881 53.5076 42.4937C52.2957 42.5103 51.0838 42.5103 49.872 42.4923C49.4597 42.4867 49.2397 42.2556 49.2334 41.8329C49.2147 40.6328 49.2119 39.4335 49.2216 38.2341C49.2251 37.8239 49.4632 37.615 49.8761 37.5963C50.0476 37.5886 50.219 37.5962 50.3905 37.5969C50.8576 37.6004 50.8583 37.5997 50.7687 37.1243C50.4904 35.648 50.0184 34.2376 49.3521 32.8897C48.5137 31.1948 47.4101 29.6872 46.0379 28.3955C43.8439 26.3307 41.2661 24.9647 38.3128 24.3185C38.006 24.2519 37.8741 24.3171 37.7395 24.61C36.8483 26.5437 34.3524 26.9991 32.8143 25.5151C32.5415 25.2521 32.3055 24.9397 32.1862 24.5774C32.0827 24.263 31.9134 24.2477 31.633 24.3088C29.4869 24.7725 27.5053 25.6185 25.7229 26.897C22.2713 29.3714 20.1127 32.7016 19.2243 36.855C19.0674 37.5893 19.0736 37.59 19.835 37.5935C20.5249 37.5962 20.7262 37.7975 20.7262 38.4916C20.7255 39.532 20.7242 40.5731 20.7179 41.6136C20.7137 42.3049 20.509 42.5082 19.8121 42.5055C18.6128 42.5013 17.4141 42.4881 16.214 42.4791C16.0752 42.3403 15.9371 42.2022 15.7983 42.0633C15.8004 40.8397 15.799 39.6153 15.8052 38.3917C15.808 37.8059 16.0197 37.6025 16.6083 37.5969C16.8651 37.5942 17.1247 37.5761 17.3787 37.5997C17.6959 37.6296 17.8174 37.5206 17.8722 37.1923C18.4601 33.649 20.0266 30.5819 22.4968 27.9909C24.0474 26.3654 25.8777 25.107 27.9377 24.195C28.0467 24.1471 28.1806 24.1283 28.3014 23.959C26.9299 23.9632 25.6223 23.9729 24.3139 23.9652C24.0627 23.9639 23.9294 24.0471 23.7941 24.263C23.3929 24.9002 22.8099 25.2486 22.036 25.166C21.2919 25.0869 20.7582 24.6975 20.4847 23.9923C20.2772 23.4599 20.3473 22.9345 20.5784 22.423C20.822 22.178 21.0642 21.9358 21.3065 21.6935ZM33.7194 22.0794C33.0066 22.7895 33.0017 23.9007 33.7083 24.6086C34.3989 25.2993 35.5254 25.3055 36.2195 24.6225C36.9344 23.9187 36.942 22.802 36.2382 22.0926C35.5129 21.3617 34.444 21.3562 33.7194 22.0794ZM17.1011 41.1603C17.1719 41.2464 17.2496 41.2311 17.3204 41.2311C17.9444 41.2318 18.569 41.2249 19.193 41.2339C19.413 41.2374 19.4602 41.1347 19.4582 40.9424C19.4512 40.3427 19.4464 39.7423 19.4609 39.1433C19.4665 38.8921 19.3651 38.8324 19.1347 38.8366C18.5475 38.8491 17.9596 38.8498 17.3731 38.8352C17.1448 38.8289 17.0761 38.9046 17.0816 39.1281C17.0948 39.7396 17.0865 40.3517 17.0879 40.9639C17.0865 41.0361 17.0962 41.1083 17.1011 41.1603ZM52.8232 38.9275C52.7691 38.8664 52.6941 38.8622 52.6205 38.8622C51.9854 38.8616 51.3504 38.865 50.7146 38.8595C50.5244 38.8581 50.4967 38.9594 50.4973 39.1156C50.5015 39.7264 50.5078 40.3379 50.496 40.948C50.4911 41.1791 50.5799 41.2402 50.7972 41.2367C51.3955 41.2256 51.9952 41.2228 52.5928 41.2374C52.8322 41.2436 52.8794 41.1423 52.8766 40.9327C52.8676 40.3587 52.8746 39.784 52.8732 39.2107C52.8732 39.1149 52.8857 39.0149 52.8232 38.9275ZM48.116 23.7424C48.3436 23.5245 48.354 23.1337 48.1375 22.92C47.9327 22.7166 47.5531 22.7173 47.3379 22.9227C47.113 23.1365 47.1033 23.5391 47.3185 23.7487C47.5253 23.95 47.9008 23.9479 48.116 23.7424ZM22.6238 22.9415C22.4142 22.7235 22.0845 22.7187 21.8729 22.9304C21.6521 23.1497 21.6542 23.4877 21.877 23.7161C22.095 23.9396 22.4205 23.95 22.6287 23.7417C22.8335 23.5356 22.8314 23.1573 22.6238 22.9415Z" fill="white"/>
<path d="M27.9051 54.1645C27.853 53.9389 27.9189 53.73 27.9897 53.519C28.3826 52.3474 28.7657 51.1716 29.1669 50.0028C29.2488 49.7641 29.2321 49.5642 29.1301 49.3358C28.2722 47.4271 27.4268 45.5128 26.5704 43.6041C26.4406 43.3147 26.4406 43.0481 26.5655 42.758C28.6817 37.8335 30.7938 32.9077 32.901 27.9797C33.051 27.6285 33.2849 27.4668 33.6611 27.4696C34.5307 27.4758 35.3997 27.4758 36.2694 27.4696C36.6428 27.4668 36.8857 27.6139 37.0371 27.9679C39.1366 32.873 41.2404 37.7752 43.3497 42.6761C43.501 43.0273 43.4948 43.339 43.3344 43.6936C42.4814 45.5781 41.652 47.4722 40.8052 49.3587C40.706 49.5787 40.7094 49.7696 40.7851 49.991C41.1828 51.1619 41.5729 52.3349 41.9574 53.5093C42.1927 54.2277 41.9456 54.5705 41.1967 54.5712C37.0461 54.5726 32.8948 54.5719 28.7442 54.5705C28.586 54.5705 28.4284 54.5435 28.2701 54.5282C28.148 54.4074 28.0265 54.286 27.9051 54.1645ZM32.5068 45.2928C30.6168 43.4056 31.4303 40.192 33.9935 39.4639C34.2746 39.3841 34.3524 39.2744 34.3517 38.9933C34.3426 35.8471 34.3461 32.7008 34.3461 29.5553C34.3461 29.3595 34.3482 29.1631 34.3454 28.9674C34.344 28.8716 34.36 28.7585 34.2149 28.748C34.106 28.7404 33.988 28.7182 33.92 28.8376C33.8721 28.9229 33.8318 29.0118 33.7929 29.102C31.8322 33.6795 29.8742 38.2569 27.9078 42.8316C27.8072 43.0655 27.8058 43.2598 27.9092 43.4924C28.6866 45.222 29.4563 46.9551 30.2177 48.691C30.3142 48.911 30.4343 49.0019 30.6828 49.0019C33.5472 48.9929 36.4117 48.9936 39.2762 48.9999C39.5087 49.0006 39.6246 48.9166 39.7162 48.7084C40.479 46.9725 41.248 45.2387 42.0254 43.509C42.1351 43.2647 42.1337 43.0606 42.0268 42.8135C40.8337 40.0504 39.6517 37.2831 38.4662 34.5165C37.6812 32.6835 36.892 30.8518 36.1105 29.0167C36.0369 28.8445 35.9626 28.7078 35.7426 28.7446C35.5059 28.7855 35.5989 28.9715 35.5989 29.0965C35.5941 32.401 35.5975 35.7069 35.5892 39.0121C35.5885 39.2779 35.66 39.3869 35.9286 39.4611C36.638 39.6597 37.2356 40.0421 37.6978 40.6362C38.8902 42.1687 38.6938 44.1837 37.2085 45.5107C35.9161 46.6685 33.7853 46.5699 32.5068 45.2928ZM29.5084 53.2872C29.5882 53.2921 29.6854 53.3018 29.7819 53.3025C30.6023 53.3038 31.4227 53.3038 32.2437 53.3032C34.8764 53.3025 37.509 53.299 40.1417 53.308C40.4547 53.3087 40.5234 53.2317 40.4172 52.9311C40.1396 52.1468 39.8821 51.3549 39.626 50.5629C39.56 50.3596 39.4594 50.2756 39.231 50.2777C37.7867 50.2909 36.3416 50.2881 34.8972 50.2888C33.5257 50.2902 32.1549 50.2895 30.7834 50.2895C30.5863 50.2895 30.3968 50.2721 30.3135 50.5289C30.0435 51.3681 29.7583 52.2016 29.4813 53.038C29.4549 53.1144 29.405 53.199 29.5084 53.2872ZM36.547 44.3704C37.432 43.4757 37.4271 42.0952 36.5338 41.2144C35.6669 40.36 34.2309 40.3787 33.364 41.2567C32.5054 42.1264 32.5228 43.5069 33.4036 44.3849C34.3024 45.2824 35.6517 45.2754 36.547 44.3704Z" fill="white"/>
</svg>
