<svg width="70" height="70" viewBox="0 0 70 70" fill="none" xmlns="http://www.w3.org/2000/svg">
<circle cx="35" cy="35" r="35" fill="#FD8E07"/>
<path d="M37.0698 16C38.0744 16.1506 39.08 16.3052 40.0366 16.6593C45.1226 18.5451 48.1362 22.1527 49.0774 27.4821C49.2932 28.7204 49.2098 29.9714 49.2128 31.2185C49.2128 31.5012 49.2805 31.6518 49.5856 31.6841C50.6648 31.7946 51.4359 32.4069 52.0383 33.2491C52.6725 34.13 53.0092 35.1892 52.9998 36.2734C52.9998 38.1279 52.9998 39.9824 52.9998 41.8369C52.9949 43.6954 51.8863 44.9738 50.031 45.2242C49.9093 45.2338 49.7918 45.2734 49.6891 45.3393C49.5864 45.4051 49.5017 45.4953 49.4424 45.6017C48.7056 46.7755 47.8226 47.8162 46.6668 48.6085C45.1971 49.6385 43.4587 50.2203 41.6633 50.283C41.4268 50.2918 41.2944 50.3309 41.2218 50.6019C40.64 52.7654 38.7121 54.0928 36.33 53.9949C34.3394 53.9118 32.443 52.2245 32.0623 50.1969C31.6247 47.8279 33.0964 45.4638 35.4157 44.8447C37.839 44.1962 40.3211 45.4902 41.1315 47.8201C41.3415 48.4255 41.3405 48.407 42.0145 48.3453C43.9865 48.1497 45.6024 47.2841 46.9092 45.8169C47.03 45.71 47.1201 45.5729 47.1701 45.4198C46.9523 45.3543 46.7326 45.3914 46.5177 45.3875C45.7328 45.3719 45.3767 45.0276 45.3757 44.2568C45.3757 40.4989 45.3757 36.741 45.3757 32.983C45.3608 32.7111 45.4098 32.4394 45.519 32.1898C45.727 31.7633 46.0782 31.6381 46.5256 31.642C47.3242 31.6499 47.2418 31.7203 47.2437 30.929C47.2437 29.5596 47.2663 28.1903 46.9631 26.8356C45.9713 22.4047 42.2657 18.8737 37.7575 18.103C31.5825 17.0466 25.8019 20.9395 24.4765 27.0527C24.1674 28.4778 24.2194 29.9274 24.2243 31.3731C24.2243 31.5609 24.3087 31.645 24.4931 31.643C24.6776 31.6411 24.865 31.643 25.0504 31.643C25.6008 31.6557 25.9334 31.912 26.0658 32.4421C26.1198 32.6712 26.1445 32.9062 26.1394 33.1415C26.1394 36.812 26.1394 40.4836 26.1394 44.1561C26.1394 45.0207 25.7843 45.3904 24.9248 45.3787C23.723 45.3621 22.5172 45.4707 21.3213 45.3239C20.4176 45.2219 19.5827 44.7933 18.9745 44.1193C18.3662 43.4453 18.0266 42.5724 18.0199 41.6658C17.9914 39.6509 17.9954 37.6359 18.0199 35.621C18.0405 33.8389 19.1364 32.3257 20.714 31.8201C21.068 31.7007 21.4401 31.6431 21.8138 31.6499C22.1513 31.6616 22.2661 31.5521 22.2661 31.2058C22.2661 30.2795 22.2406 29.3542 22.3102 28.427C22.5064 25.7773 23.3894 23.3858 25.0151 21.2867C27.3462 18.2683 30.4258 16.5292 34.2187 16.0509C34.2774 16.0381 34.3351 16.0211 34.3914 16H37.0698ZM24.1684 38.5397C24.1684 37.0187 24.1684 35.4988 24.1684 33.9788C24.1684 33.7186 24.1066 33.5953 23.8162 33.6032C23.1598 33.6198 22.5025 33.6032 21.8452 33.611C21.0603 33.6247 20.5119 34.015 20.1881 34.7202C20.0432 35.0495 19.9716 35.4062 19.9782 35.7658C19.9782 37.6692 19.9782 39.5726 19.9782 41.476C19.9782 42.64 20.7414 43.4068 21.906 43.4205C22.5133 43.4274 23.1216 43.4039 23.7279 43.4283C24.0723 43.443 24.1753 43.3305 24.1714 42.9892C24.1596 41.5054 24.1684 40.0225 24.1684 38.5397ZM47.3487 38.4771C47.3487 39.9958 47.3487 41.5148 47.3487 43.0342C47.3487 43.2445 47.3487 43.4313 47.6489 43.4254C48.218 43.4127 48.7899 43.4479 49.358 43.4127C50.5834 43.3364 51.0337 42.8425 51.0337 41.6315C51.0337 39.8406 51.0337 38.0497 51.0337 36.2588C51.0415 35.5362 50.8097 34.8313 50.3744 34.2536C50.2314 34.0499 50.0402 33.8846 49.8177 33.7723C49.5952 33.66 49.3483 33.6043 49.099 33.61C48.6536 33.61 48.2062 33.6276 47.7617 33.6032C47.4252 33.5836 47.3409 33.7166 47.3438 34.0326C47.3556 35.5134 47.3487 36.9953 47.3487 38.4771ZM36.7264 52.0397C38.198 52.0446 39.4166 50.8806 39.4244 49.4526C39.4332 47.8573 38.2245 46.5896 36.6921 46.5877C35.972 46.5876 35.281 46.8706 34.7689 47.3753C34.2569 47.8799 33.965 48.5655 33.9568 49.2834C33.9622 50.0136 34.2559 50.7123 34.7743 51.2281C35.2926 51.744 35.994 52.0356 36.7264 52.0397Z" fill="white"/>
</svg>
