<svg width="70" height="70" viewBox="0 0 70 70" fill="none" xmlns="http://www.w3.org/2000/svg">
<circle cx="35" cy="35" r="35" fill="#F5C113"/>
<path d="M16 35.0719C16.306 34.3284 16.8683 34.0039 17.6635 34.0282C18.2345 34.0458 18.8055 34.0243 19.3766 34.0341C19.6095 34.038 19.705 33.9552 19.6992 33.7154C19.6884 33.2175 19.6933 32.7185 19.6972 32.2206C19.7031 31.5034 20.0295 30.9567 20.6337 30.5951C20.8646 30.4568 20.9426 30.3096 20.9426 30.0475C20.9348 27.0334 20.9368 24.0193 20.9377 21.0052C20.9377 19.6175 21.5741 18.9734 22.9939 18.7785C26.2068 18.338 29.3992 17.7884 32.4825 16.7379C32.9756 16.5693 33.456 16.3608 33.9374 16.1591C34.4227 15.9564 34.9041 15.9398 35.3864 16.1532C37.7252 17.1881 40.2033 17.7299 42.7009 18.1909C44.0487 18.4394 45.4061 18.6343 46.7597 18.8516C47.7615 19.0124 48.4066 19.7481 48.4085 20.7635C48.4124 23.8263 48.4134 26.8892 48.4056 29.952C48.4046 30.256 48.4641 30.4509 48.7564 30.6234C49.3372 30.9664 49.6393 31.5121 49.65 32.1972C49.6568 32.6952 49.6607 33.1941 49.6481 33.692C49.6412 33.9425 49.7299 34.0399 49.9852 34.0341C50.5923 34.0224 51.2004 34.0273 51.8085 34.0312C53.1172 34.0409 53.7789 35.2152 53.1153 36.3456C52.8814 36.7441 52.6505 37.1437 52.4 37.5315C52.2694 37.7342 52.2753 37.9028 52.401 38.1016C52.6544 38.5021 52.8941 38.9114 53.1328 39.3197C53.774 40.417 53.1124 41.5805 51.8446 41.5854C50.6898 41.5893 49.535 41.5883 48.3803 41.5844C48.1737 41.5834 48.0187 41.5951 47.9447 41.8514C46.9731 45.2232 44.8438 47.7471 42.0783 49.7935C39.9724 51.3527 37.6609 52.525 35.1857 53.3786C34.8456 53.3786 34.5045 53.3786 34.1644 53.3786C31.2751 52.3681 28.605 50.959 26.2497 48.9866C23.9752 47.0815 22.2572 44.7924 21.422 41.906C21.3529 41.6663 21.2437 41.5776 20.9913 41.5805C19.8629 41.5922 18.7334 41.5679 17.604 41.5912C16.8108 41.6078 16.2807 41.2775 16 40.5398C16 40.2728 16 40.0048 16 39.7378C16.2962 39.2242 16.5779 38.7029 16.8936 38.202C17.0632 37.933 17.0797 37.7225 16.9024 37.4428C16.5798 36.9332 16.2397 36.4304 16 35.872C16 35.6069 16 35.3389 16 35.0719ZM34.6546 30.3077C37.8032 30.3077 40.9508 30.3077 44.0993 30.3077C44.5749 30.3077 44.5759 30.3067 44.5759 29.8204C44.5768 27.62 44.5798 25.4196 44.5749 23.2202C44.5729 22.2438 44.7084 22.4299 43.729 22.2642C40.7452 21.7604 37.7827 21.1718 34.9362 20.1106C34.755 20.0434 34.5952 20.0366 34.411 20.1067C31.4417 21.2293 28.3429 21.8208 25.2235 22.3217C24.8766 22.3773 24.7616 22.5001 24.7636 22.8548C24.7782 25.1643 24.7714 27.4738 24.7714 29.7834C24.7714 30.3077 24.7723 30.3086 25.283 30.3086C28.4072 30.3077 31.5304 30.3077 34.6546 30.3077ZM34.6702 39.1063C31.5109 39.1063 28.3516 39.1083 25.1923 39.1034C24.9283 39.1034 24.7782 39.1005 24.822 39.4708C25.0657 41.5035 25.9622 43.2196 27.3118 44.7154C29.2774 46.8934 31.7497 48.3113 34.4315 49.4076C34.6 49.4768 34.754 49.4768 34.9226 49.4086C37.4514 48.3708 39.796 47.0454 41.7167 45.0585C43.2165 43.5071 44.2309 41.7121 44.5164 39.537C44.5681 39.1472 44.4521 39.0985 44.111 39.1005C40.9644 39.1112 37.8178 39.1063 34.6702 39.1063ZM34.6712 31.6563C30.3805 31.6563 26.0898 31.6554 21.7992 31.6573C21.194 31.6573 21.0439 31.8074 21.043 32.4116C21.041 33.9552 21.04 35.4987 21.0439 37.0423C21.0449 37.5949 21.2096 37.7576 21.7651 37.7576C30.3591 37.7586 38.9531 37.7586 47.5461 37.7576C48.1454 37.7576 48.3033 37.5988 48.3043 37.0014C48.3062 35.5065 48.3062 34.0117 48.3052 32.5158C48.3052 31.7665 48.1932 31.6563 47.435 31.6563C43.1804 31.6563 38.9258 31.6563 34.6712 31.6563ZM47.0608 25.3797C47.0608 23.8731 47.0628 22.3656 47.0598 20.859C47.0589 20.3864 46.9078 20.2139 46.4634 20.1477C45.4802 19.9995 44.494 19.8651 43.5137 19.6994C40.902 19.2579 38.2943 18.7658 35.8337 17.7602C34.9986 17.4191 34.336 17.4425 33.5037 17.766C30.133 19.0767 26.5751 19.6166 23.0173 20.135C22.416 20.2227 22.2854 20.3406 22.2854 20.9409C22.2845 23.189 22.2845 25.4372 22.2845 27.6853C22.2845 28.4386 22.2835 29.1919 22.2864 29.9461C22.2874 30.0631 22.2465 30.2346 22.3848 30.2687C22.6918 30.3447 23.027 30.372 23.3165 30.2619C23.5172 30.1858 23.4149 29.912 23.4149 29.7288C23.4207 27.3345 23.4168 24.9412 23.4197 22.5468C23.4207 21.6698 23.8329 21.1913 24.6934 21.0549C24.8727 21.0266 25.054 21.0023 25.2333 20.973C28.2532 20.4692 31.2556 19.8953 34.1284 18.7902C34.4841 18.6538 34.8329 18.643 35.1925 18.7804C38.2144 19.9391 41.3747 20.5306 44.5534 21.0413C45.5338 21.1991 45.9265 21.6318 45.9275 22.6287C45.9284 24.9616 45.9255 27.2955 45.9285 29.6284C45.9294 30.3895 45.8427 30.2862 46.6116 30.3145C46.9614 30.3271 47.0725 30.217 47.0686 29.8633C47.052 28.3694 47.0618 26.8745 47.0608 25.3797ZM22.8302 39.1063C22.6557 39.1804 22.2513 38.9241 22.3079 39.4289C22.3517 39.8138 22.4053 40.1997 22.4774 40.5807C22.9403 43.0403 24.1623 45.0984 25.8979 46.8554C28.2659 49.2517 31.1309 50.8606 34.2765 52.0007C34.5883 52.1138 34.8973 52.0748 35.2032 51.9608C36.4584 51.494 37.6775 50.9502 38.8449 50.2944C41.1681 48.9895 43.2476 47.3953 44.8302 45.2173C45.9947 43.6153 46.747 41.8427 46.975 39.8664C47.0657 39.079 47.0433 39.0858 46.2364 39.1014C45.9665 39.1063 45.8788 39.2203 45.8563 39.4698C45.6946 41.2804 45.0534 42.9204 43.998 44.387C41.7489 47.5132 38.5925 49.3871 35.0873 50.766C34.7764 50.8879 34.4675 50.8528 34.1635 50.7319C31.1708 49.5421 28.4315 47.9644 26.2565 45.534C24.7684 43.8725 23.8056 41.9567 23.5036 39.73C23.4188 39.1063 23.4197 39.1063 22.8302 39.1063ZM19.172 40.2455C19.5725 40.2455 19.974 40.2513 20.3745 40.2445C21.157 40.2309 21.0264 40.3761 20.9991 39.5604C20.9874 39.2145 20.8871 38.9514 20.5323 38.7448C19.9779 38.4222 19.704 37.8726 19.6982 37.2158C19.6933 36.7178 19.6875 36.2189 19.7001 35.7209C19.7069 35.4705 19.6183 35.373 19.363 35.3789C18.7919 35.3916 18.2209 35.3779 17.6498 35.3847C17.3029 35.3886 17.2678 35.4598 17.452 35.7755C17.6966 36.1955 17.9519 36.6087 18.1965 37.0287C18.5132 37.5705 18.5122 38.1094 18.178 38.6473C17.9597 38.9981 17.7482 39.3528 17.5436 39.7115C17.4637 39.8518 17.2815 39.9902 17.3818 40.1626C17.4705 40.3156 17.6722 40.2396 17.8233 40.2426C18.2725 40.2513 18.7227 40.2455 19.172 40.2455ZM50.1353 40.2455C50.6459 40.2455 51.1556 40.2494 51.6662 40.2445C52.0424 40.2406 52.0775 40.1734 51.8826 39.8401C51.6623 39.462 51.447 39.081 51.2082 38.7155C50.8184 38.1191 50.8321 37.5345 51.2004 36.9381C51.4499 36.5356 51.6877 36.1253 51.9323 35.72C52.0706 35.49 52.0054 35.3838 51.7383 35.3847C51.1429 35.3877 50.5475 35.3925 49.9521 35.3818C49.7007 35.3769 49.6451 35.4988 49.649 35.719C49.6578 36.2169 49.6549 36.7149 49.65 37.2138C49.6432 37.8697 49.3742 38.4232 48.8188 38.7448C48.4475 38.9592 48.3676 39.2379 48.3442 39.5955C48.3364 39.7163 48.3481 39.8411 48.3267 39.959C48.2828 40.1967 48.391 40.2542 48.6063 40.2504C49.114 40.2396 49.6247 40.2455 50.1353 40.2455Z" fill="white"/>
<path d="M38.4251 23.5347C38.4397 23.714 38.3491 23.8777 38.2049 24.0219C36.5804 25.6445 34.9598 27.2709 33.3325 28.8905C32.9846 29.2364 32.6357 29.2296 32.282 28.8856C31.899 28.5124 31.5209 28.1353 31.1486 27.7513C30.8563 27.4502 30.8456 27.037 31.1087 26.7758C31.365 26.5215 31.7538 26.5244 32.0607 26.7944C32.2245 26.9386 32.3892 27.0877 32.5246 27.2572C32.7224 27.5048 32.8608 27.5038 33.0927 27.267C34.4375 25.8978 35.8018 24.5472 37.1573 23.1888C37.3317 23.0133 37.5101 22.8594 37.782 22.8642C38.163 22.872 38.4212 23.1215 38.4251 23.5347Z" fill="white"/>
<path d="M34.6707 32.7908C36.2377 32.7908 37.8056 32.7898 39.3726 32.7917C39.5061 32.7917 39.6445 32.7839 39.7712 32.8151C40.082 32.8921 40.2925 33.0851 40.3062 33.4222C40.3208 33.7692 40.1415 34.0021 39.8111 34.0985C39.6747 34.1385 39.5237 34.1395 39.3794 34.1404C36.2445 34.1424 33.1096 34.1424 29.9756 34.1414C29.8548 34.1414 29.731 34.1443 29.6121 34.1219C29.2565 34.0557 29.0245 33.7682 29.0382 33.4291C29.0508 33.1075 29.2915 32.8512 29.6404 32.8025C29.7603 32.7859 29.883 32.7917 30.0039 32.7917C31.5601 32.7898 33.1154 32.7908 34.6707 32.7908Z" fill="white"/>
<path d="M34.6563 36.6245C33.6604 36.6245 32.6635 36.6235 31.6675 36.6245C31.3167 36.6245 31.0468 36.4968 30.9386 36.1431C30.7993 35.689 31.116 35.2963 31.648 35.2797C32.1821 35.2631 32.7171 35.2748 33.252 35.2739C34.6495 35.2739 36.0469 35.2739 37.4433 35.2739C37.5651 35.2739 37.6879 35.268 37.8068 35.2846C38.1976 35.3362 38.4441 35.6062 38.4383 35.9618C38.4324 36.3351 38.1644 36.6099 37.7542 36.6196C37.0983 36.6342 36.4425 36.6245 35.7857 36.6255C35.4096 36.6245 35.0324 36.6245 34.6563 36.6245Z" fill="white"/>
</svg>
