<svg xmlns="http://www.w3.org/2000/svg" width="25" height="20" viewBox="0 0 25 20" fill="none"><path d="M0 17.6696C2.64139 17.9093 5.01982 17.2917 7.20263 15.6627C6.92146 15.6211 6.71395 15.602 6.51199 15.5588C4.73707 15.1857 3.49598 14.1487 2.77207 12.4773C2.62396 12.1354 2.67307 12.0778 3.05086 12.137C3.5934 12.2216 4.12167 12.137 4.6555 12.0323C3.97267 11.8249 3.33663 11.4848 2.78316 11.0312C1.62364 10.0613 1.02566 8.80458 0.909237 7.30178C0.891813 7.07168 0.973388 7.00777 1.18327 7.11882C1.48989 7.28133 1.81636 7.40248 2.15429 7.47915C2.4315 7.54146 2.71505 7.57741 3.06354 7.63893C2.82039 7.40484 2.6208 7.22348 2.42992 7.03014C0.867266 5.41948 0.50927 3.18485 1.49613 1.21706C1.65453 0.909469 1.67195 0.906274 1.88738 1.15794C4.14543 3.78885 6.9674 5.41628 10.3731 5.99631C10.7525 6.06103 11.1382 6.0826 11.5191 6.13373C11.7655 6.16649 11.8462 6.09858 11.8043 5.82853C11.6035 4.61507 11.8628 3.36983 12.5305 2.34037C14.2175 -0.333681 17.7729 -0.791473 20.1735 1.35687C20.3723 1.53504 20.5387 1.55981 20.7802 1.49669C21.6426 1.2757 22.4751 0.949455 23.2593 0.525179C23.3385 0.482036 23.4335 0.377375 23.5198 0.465258C23.5848 0.530771 23.5079 0.633035 23.4771 0.714527C23.1668 1.53931 22.6414 2.2642 21.9564 2.81254C21.859 2.88451 21.7691 2.96614 21.6879 3.05622C22.5512 2.9963 23.3511 2.6975 24.1637 2.3915C24.1851 2.56887 24.0845 2.64956 24.0196 2.74223C23.4738 3.52679 22.8125 4.2227 22.0586 4.80589C21.8336 4.98166 21.76 5.15343 21.7655 5.44984C21.7893 6.82731 21.6092 8.20064 21.2309 9.52443C20.5054 12.0898 19.2255 14.3284 17.3159 16.1804C15.2567 18.1729 12.807 19.3714 9.98975 19.8108C7.3048 20.2286 4.69588 19.965 2.17568 18.9152C1.49918 18.6354 0.846719 18.2997 0.224931 17.9117C0.172676 17.8896 0.125637 17.8566 0.0868786 17.8148C0.0481205 17.7731 0.0185173 17.7236 0 17.6696Z" fill="white"></path></svg>